<?xml version="1.0" standalone="no"?>
<!DOCTYPE svg PUBLIC "-//W3C//DTD SVG 20010904//EN"
 "http://www.w3.org/TR/2001/REC-SVG-20010904/DTD/svg10.dtd">
<svg version="1.0" xmlns="http://www.w3.org/2000/svg"
 width="500.000000pt" height="500.000000pt" viewBox="0 0 500.000000 500.000000"
 preserveAspectRatio="xMidYMid meet">
<metadata>
Created by potrace 1.14, written by Peter Selinger 2001-2017
</metadata>
<g transform="translate(0.000000,500.000000) scale(0.100000,-0.100000)"
fill="#000000" stroke="none">
<path d="M809 4429 c-16 -30 -36 -120 -44 -199 -4 -36 -8 -78 -10 -95 -5 -43
-15 -230 -21 -375 -2 -69 -7 -413 -9 -765 l-5 -640 -25 -85 c-80 -268 -156
-633 -180 -855 -3 -33 -9 -78 -11 -100 -12 -98 -11 -533 2 -615 22 -148 25
-161 55 -262 52 -174 116 -279 180 -293 46 -10 105 12 139 53 35 43 66 132 76
224 13 116 6 806 -11 1173 -16 326 -24 885 -14 935 3 14 26 69 52 124 26 54
47 100 47 102 0 6 214 434 237 475 164 286 320 473 413 497 42 10 54 4 79 -44
30 -59 28 -359 -4 -524 -12 -62 -15 -76 -31 -129 -26 -90 -47 -122 -232 -354
-230 -289 -283 -369 -315 -482 -22 -78 -16 -133 18 -163 25 -21 36 -24 90 -20
209 13 383 248 539 727 64 196 39 172 561 529 61 42 136 95 168 119 31 23 57
39 57 35 0 -4 -15 -59 -34 -123 -29 -100 -76 -295 -90 -382 -21 -123 -27 -334
-13 -435 9 -69 42 -164 71 -210 63 -99 133 -136 262 -139 137 -2 272 46 449
161 143 94 185 132 535 497 118 123 300 310 405 414 202 201 238 245 266 328
19 57 13 75 -20 57 -26 -14 -41 -6 -41 23 -1 24 -42 -17 -275 -268 -60 -65
-133 -144 -162 -175 -29 -31 -60 -65 -70 -77 -60 -69 -267 -287 -378 -398
-286 -287 -520 -433 -717 -449 -55 -4 -59 -3 -86 29 -17 18 -36 57 -43 86 -21
84 -17 403 6 489 2 8 7 35 10 60 21 148 119 479 199 675 181 436 403 688 627
712 57 6 58 5 78 -28 17 -28 20 -46 16 -114 -8 -156 -61 -278 -212 -487 -35
-48 -63 -92 -63 -98 0 -14 46 -23 85 -17 127 21 247 164 321 383 79 235 52
381 -86 458 -51 28 -61 31 -150 30 -164 -2 -287 -61 -441 -214 -111 -111 -200
-240 -294 -426 -64 -125 -66 -128 -122 -159 -50 -27 -172 -104 -448 -283 -38
-25 -107 -74 -153 -109 -45 -34 -85 -63 -88 -63 -7 0 2 113 12 165 12 60 7
230 -9 288 -42 156 -159 244 -298 223 -174 -26 -416 -320 -663 -806 -38 -74
-70 -137 -72 -138 -3 -5 2 331 11 638 12 400 8 788 -7 839 -13 42 -38 68 -38
39 0 -7 -7 -22 -15 -32 -14 -19 -15 -18 -21 12 -9 45 -29 59 -45 31z m1049
-734 c-3 -3 -9 2 -12 12 -6 14 -5 15 5 6 7 -7 10 -15 7 -18z m2562 -135 c0 -5
-2 -10 -4 -10 -3 0 -8 5 -11 10 -3 6 -1 10 4 10 6 0 11 -4 11 -10z m-1833
-742 c-3 -7 -5 -2 -5 12 0 14 2 19 5 13 2 -7 2 -19 0 -25z m-1626 -85 c-8 -15
-10 -15 -11 -2 0 17 10 32 18 25 2 -3 -1 -13 -7 -23z m1606 -75 c-3 -8 -6 -5
-6 6 -1 11 2 17 5 13 3 -3 4 -12 1 -19z m118 -478 c3 -5 2 -10 -4 -10 -5 0
-13 5 -16 10 -3 6 -2 10 4 10 5 0 13 -4 16 -10z m-1958 -92 c-3 -8 -6 -5 -6 6
-1 11 2 17 5 13 3 -3 4 -12 1 -19z m20 -251 c1 -39 5 -160 9 -267 15 -385 9
-1219 -10 -1237 -2 -2 -17 29 -34 69 -44 106 -72 223 -88 373 -2 17 -4 111 -4
210 0 168 2 235 15 360 3 28 8 75 10 106 3 31 7 65 9 75 2 11 7 39 11 64 3 25
9 58 11 74 11 66 56 246 62 246 4 0 8 -33 9 -73z m-113 -171 c-3 -21 -8 -35
-11 -32 -2 2 -1 20 3 40 3 21 8 35 11 32 2 -2 1 -20 -3 -40z m-47 -318 c-3 -7
-5 -2 -5 12 0 14 2 19 5 13 2 -7 2 -19 0 -25z m3 -43 c0 -8 -2 -15 -4 -15 -2
0 -6 7 -10 15 -3 8 -1 15 4 15 6 0 10 -7 10 -15z m-7 -101 c-3 -64 -13 -69
-13 -6 0 29 3 52 8 52 4 0 6 -21 5 -46z m-3 -98 c0 -3 -4 -8 -10 -11 -5 -3
-10 -1 -10 4 0 6 5 11 10 11 6 0 10 -2 10 -4z m-5 -36 c3 -5 1 -10 -4 -10 -6
0 -11 5 -11 10 0 6 2 10 4 10 3 0 8 -4 11 -10z m-8 -102 c-2 -13 -4 -5 -4 17
-1 22 1 32 4 23 2 -10 2 -28 0 -40z m333 -48 c0 -5 -2 -10 -4 -10 -3 0 -8 5
-11 10 -3 6 -1 10 4 10 6 0 11 -4 11 -10z m-295 -315 c5 -36 4 -38 -9 -21 -19
23 -39 177 -28 205 6 14 20 -55 37 -184z m18 -101 c3 -17 10 -41 16 -53 9 -17
9 -21 -3 -21 -9 0 -17 15 -21 43 -3 23 -9 51 -12 62 -4 14 -2 17 5 10 6 -5 12
-24 15 -41z m34 -106 c28 -62 50 -127 41 -122 -9 6 -68 126 -68 139 0 14 18 2
27 -17z"/>
</g>
</svg>
